<svg xmlns="http://www.w3.org/2000/svg" xmlns:xlink="http://www.w3.org/1999/xlink" width="1200" zoomAndPan="magnify" viewBox="0 0 900 899.99999" height="1200" preserveAspectRatio="xMidYMid meet" version="1.0"><defs><g/><clipPath id="2bd394fb4c"><path d="M 500.625 268.21875 L 794.625 268.21875 L 794.625 562.21875 L 500.625 562.21875 Z M 500.625 268.21875 " clip-rule="nonzero"/></clipPath></defs><g fill="#e26c52" fill-opacity="1"><g transform="translate(47.162539, 638.706987)"><g><path d="M 22.375 3.84375 C 16.832031 3.84375 11.71875 1.070312 7.03125 -4.46875 C 2.34375 -10.007812 0 -15.550781 0 -21.09375 L 1.28125 -423.921875 C 1.28125 -432.023438 3.625 -438.207031 8.3125 -442.46875 C 13 -446.726562 18.113281 -448.859375 23.65625 -448.859375 L 138.109375 -448.21875 C 148.335938 -448.21875 155.582031 -443.101562 159.84375 -432.875 L 226.984375 -273.03125 L 227.625 -425.203125 C 227.625 -432.878906 229.96875 -438.847656 234.65625 -443.109375 C 239.351562 -447.367188 244.472656 -449.5 250.015625 -449.5 L 364.46875 -448.859375 C 371.28125 -448.859375 377.03125 -446.40625 381.71875 -441.5 C 386.414062 -436.601562 388.335938 -430.742188 387.484375 -423.921875 L 382.359375 -20.46875 C 382.359375 -14.070312 380.117188 -8.421875 375.640625 -3.515625 C 371.171875 1.390625 365.738281 3.84375 359.34375 3.84375 L 250.640625 3.84375 C 245.097656 3.84375 240.625 1.710938 237.21875 -2.546875 C 233.8125 -6.816406 231.253906 -10.65625 229.546875 -14.0625 L 156.65625 -164.96875 L 154.09375 -21.09375 C 154.09375 -13.425781 151.75 -7.351562 147.0625 -2.875 C 142.375 1.601562 137.046875 3.84375 131.078125 3.84375 Z M 22.375 3.84375 "/></g></g></g><g fill="#e26c52" fill-opacity="1"><g transform="translate(460.21612, 638.706987)"><g><path d="M 305.640625 54.984375 C 294.128906 54.554688 280.488281 54.34375 264.71875 54.34375 C 248.945312 54.34375 229.765625 54.34375 207.171875 54.34375 C 201.203125 54.34375 196.082031 52.210938 191.8125 47.953125 C 187.550781 43.691406 183.71875 38.148438 180.3125 31.328125 L 170.71875 7.671875 C 162.195312 6.816406 153.992188 5.75 146.109375 4.46875 C 138.222656 3.195312 130.867188 1.492188 124.046875 -0.640625 C 93.773438 -10.867188 69.796875 -23.757812 52.109375 -39.3125 C 34.421875 -54.875 21.632812 -75.867188 13.75 -102.296875 C 5.863281 -128.734375 1.28125 -162.835938 0 -204.609375 C 1.28125 -246.378906 5.96875 -283.78125 14.0625 -316.8125 C 22.164062 -349.851562 35.0625 -377.773438 52.75 -400.578125 C 70.4375 -423.390625 94.203125 -439.910156 124.046875 -450.140625 C 139.390625 -455.253906 156.863281 -458.128906 176.46875 -458.765625 C 196.082031 -459.410156 215.585938 -457.492188 234.984375 -453.015625 C 254.378906 -448.546875 271.109375 -441.40625 285.171875 -431.59375 C 306.054688 -417.101562 322.144531 -398.988281 333.4375 -377.25 C 344.738281 -355.507812 352.835938 -330.675781 357.734375 -302.75 C 362.640625 -274.832031 365.734375 -243.820312 367.015625 -209.71875 C 367.015625 -173.914062 362.21875 -140.664062 352.625 -109.96875 C 343.039062 -79.28125 325.457031 -53.066406 299.875 -31.328125 C 307.550781 -15.554688 315.863281 2.34375 324.8125 22.375 C 329.507812 32.601562 330.363281 40.703125 327.375 46.671875 C 324.394531 52.640625 317.148438 55.410156 305.640625 54.984375 Z M 143.859375 -219.3125 C 144.285156 -192.882812 148.335938 -172.847656 156.015625 -159.203125 C 163.691406 -145.566406 172.75 -138.425781 183.1875 -137.78125 C 193.632812 -137.144531 202.90625 -143.222656 211 -156.015625 C 219.101562 -168.804688 223.582031 -188.203125 224.4375 -214.203125 C 224.4375 -247.878906 220.382812 -273.664062 212.28125 -291.5625 C 204.1875 -309.46875 194.804688 -318.953125 184.140625 -320.015625 C 173.484375 -321.085938 164.101562 -313.3125 156 -296.6875 C 147.90625 -280.0625 143.859375 -254.269531 143.859375 -219.3125 Z M 143.859375 -219.3125 "/></g></g></g><g clip-path="url(#2bd394fb4c)"><path fill="#e26c52" d="M 504.113281 340.117188 C 506.890625 303.429688 535.835938 274.488281 572.519531 271.707031 C 597.28125 269.832031 625.148438 268.21875 647.722656 268.21875 C 670.300781 268.21875 698.167969 269.832031 722.925781 271.707031 C 759.613281 274.488281 788.554688 303.429688 791.335938 340.117188 C 793.210938 364.878906 794.824219 392.742188 794.824219 415.320312 C 794.824219 437.894531 793.210938 465.761719 791.335938 490.523438 C 788.554688 527.207031 759.613281 556.152344 722.925781 558.929688 C 698.167969 560.804688 670.300781 562.417969 647.722656 562.417969 C 625.148438 562.417969 597.28125 560.804688 572.519531 558.929688 C 535.835938 556.152344 506.890625 527.207031 504.113281 490.523438 C 502.238281 465.761719 500.625 437.894531 500.625 415.320312 C 500.625 392.742188 502.238281 364.878906 504.113281 340.117188 Z M 504.113281 340.117188 " fill-opacity="1" fill-rule="nonzero"/></g><path fill="#ffffff" d="M 569.269531 367.882812 C 569.269531 350.753906 583.15625 336.867188 600.285156 336.867188 L 618.53125 336.867188 C 621.554688 336.867188 624.003906 339.316406 624.003906 342.339844 C 624.003906 345.363281 621.554688 347.8125 618.53125 347.8125 L 600.285156 347.8125 C 589.203125 347.8125 580.21875 356.796875 580.21875 367.882812 L 580.21875 386.128906 C 580.21875 389.152344 577.765625 391.601562 574.742188 391.601562 C 571.722656 391.601562 569.269531 389.152344 569.269531 386.128906 Z M 671.441406 342.339844 C 671.441406 339.316406 673.894531 336.867188 676.914062 336.867188 L 695.160156 336.867188 C 712.289062 336.867188 726.175781 350.753906 726.175781 367.882812 L 726.175781 386.128906 C 726.175781 389.152344 723.726562 391.601562 720.703125 391.601562 C 717.679688 391.601562 715.230469 389.152344 715.230469 386.128906 L 715.230469 367.882812 C 715.230469 356.796875 706.246094 347.8125 695.160156 347.8125 L 676.914062 347.8125 C 673.894531 347.8125 671.441406 345.363281 671.441406 342.339844 Z M 574.742188 439.039062 C 577.765625 439.039062 580.21875 441.488281 580.21875 444.511719 L 580.21875 462.757812 C 580.21875 473.839844 589.203125 482.824219 600.285156 482.824219 L 618.53125 482.824219 C 621.554688 482.824219 624.003906 485.277344 624.003906 488.300781 C 624.003906 491.320312 621.554688 493.773438 618.53125 493.773438 L 600.285156 493.773438 C 583.15625 493.773438 569.269531 479.886719 569.269531 462.757812 L 569.269531 444.511719 C 569.269531 441.488281 571.722656 439.039062 574.742188 439.039062 Z M 720.703125 439.039062 C 723.726562 439.039062 726.175781 441.488281 726.175781 444.511719 L 726.175781 459.105469 C 726.175781 462.128906 723.726562 464.582031 720.703125 464.582031 C 717.679688 464.582031 715.230469 462.128906 715.230469 459.105469 L 715.230469 444.511719 C 715.230469 441.488281 717.679688 439.039062 720.703125 439.039062 Z M 671.441406 488.300781 C 671.441406 485.277344 673.894531 482.824219 676.914062 482.824219 L 695.160156 482.824219 C 698.183594 482.824219 700.632812 485.277344 700.632812 488.300781 C 700.632812 491.320312 698.183594 493.773438 695.160156 493.773438 L 676.914062 493.773438 C 673.894531 493.773438 671.441406 491.320312 671.441406 488.300781 Z M 671.441406 488.300781 " fill-opacity="1" fill-rule="evenodd"/><path fill="#ffffff" d="M 587.515625 375.179688 C 587.515625 364.097656 596.5 355.109375 607.585938 355.109375 L 622.179688 355.109375 C 633.265625 355.109375 642.25 364.097656 642.25 375.179688 L 642.25 389.777344 C 642.25 400.859375 633.265625 409.847656 622.179688 409.847656 L 607.585938 409.847656 C 596.5 409.847656 587.515625 400.859375 587.515625 389.777344 Z M 607.585938 366.058594 C 602.546875 366.058594 598.460938 370.140625 598.460938 375.179688 L 598.460938 389.777344 C 598.460938 394.816406 602.546875 398.898438 607.585938 398.898438 L 622.179688 398.898438 C 627.21875 398.898438 631.300781 394.816406 631.300781 389.777344 L 631.300781 375.179688 C 631.300781 370.140625 627.21875 366.058594 622.179688 366.058594 Z M 607.585938 366.058594 " fill-opacity="1" fill-rule="evenodd"/><path fill="#ffffff" d="M 587.515625 440.863281 C 587.515625 429.777344 596.5 420.792969 607.585938 420.792969 L 622.179688 420.792969 C 633.265625 420.792969 642.25 429.777344 642.25 440.863281 L 642.25 455.457031 C 642.25 466.542969 633.265625 475.527344 622.179688 475.527344 L 607.585938 475.527344 C 596.5 475.527344 587.515625 466.542969 587.515625 455.457031 Z M 607.585938 431.738281 C 602.546875 431.738281 598.460938 435.824219 598.460938 440.863281 L 598.460938 455.457031 C 598.460938 460.496094 602.546875 464.582031 607.585938 464.582031 L 622.179688 464.582031 C 627.21875 464.582031 631.300781 460.496094 631.300781 455.457031 L 631.300781 440.863281 C 631.300781 435.824219 627.21875 431.738281 622.179688 431.738281 Z M 607.585938 431.738281 " fill-opacity="1" fill-rule="evenodd"/><path fill="#ffffff" d="M 653.203125 375.179688 C 653.203125 364.097656 662.1875 355.109375 673.269531 355.109375 L 687.867188 355.109375 C 698.949219 355.109375 707.9375 364.097656 707.9375 375.179688 L 707.9375 389.777344 C 707.9375 400.859375 698.949219 409.847656 687.867188 409.847656 L 673.269531 409.847656 C 662.1875 409.847656 653.203125 400.859375 653.203125 389.777344 Z M 673.269531 366.058594 C 668.234375 366.058594 664.148438 370.140625 664.148438 375.179688 L 664.148438 389.777344 C 664.148438 394.816406 668.234375 398.898438 673.269531 398.898438 L 687.867188 398.898438 C 692.90625 398.898438 696.988281 394.816406 696.988281 389.777344 L 696.988281 375.179688 C 696.988281 370.140625 692.90625 366.058594 687.867188 366.058594 Z M 673.269531 366.058594 " fill-opacity="1" fill-rule="evenodd"/><path fill="#ffffff" d="M 653.203125 440.863281 C 653.203125 429.777344 662.1875 420.792969 673.269531 420.792969 L 687.867188 420.792969 C 698.949219 420.792969 707.9375 429.777344 707.9375 440.863281 L 707.9375 455.457031 C 707.9375 466.542969 698.949219 475.527344 687.867188 475.527344 L 673.269531 475.527344 C 662.1875 475.527344 653.203125 466.542969 653.203125 455.457031 Z M 673.269531 431.738281 C 668.234375 431.738281 664.148438 435.824219 664.148438 440.863281 L 664.148438 455.457031 C 664.148438 460.496094 668.234375 464.582031 673.269531 464.582031 L 687.867188 464.582031 C 692.90625 464.582031 696.988281 460.496094 696.988281 455.457031 L 696.988281 440.863281 C 696.988281 435.824219 692.90625 431.738281 687.867188 431.738281 Z M 673.269531 431.738281 " fill-opacity="1" fill-rule="evenodd"/></svg>