<svg xmlns="http://www.w3.org/2000/svg" xmlns:xlink="http://www.w3.org/1999/xlink" width="1200" zoomAndPan="magnify" viewBox="0 0 900 899.99999" height="1200" preserveAspectRatio="xMidYMid meet" version="1.0"><defs><g/><clipPath id="46697464c2"><path d="M 500.625 205.335938 L 793.804688 205.335938 L 793.804688 498.515625 L 500.625 498.515625 Z M 500.625 205.335938 " clip-rule="nonzero"/></clipPath></defs><g fill="#e26c52" fill-opacity="1"><g transform="translate(47.162539, 575.822304)"><g><path d="M 22.375 3.84375 C 16.832031 3.84375 11.71875 1.070312 7.03125 -4.46875 C 2.34375 -10.007812 0 -15.550781 0 -21.09375 L 1.28125 -423.921875 C 1.28125 -432.023438 3.625 -438.207031 8.3125 -442.46875 C 13 -446.726562 18.113281 -448.859375 23.65625 -448.859375 L 138.109375 -448.21875 C 148.335938 -448.21875 155.582031 -443.101562 159.84375 -432.875 L 226.984375 -273.03125 L 227.625 -425.203125 C 227.625 -432.878906 229.96875 -438.847656 234.65625 -443.109375 C 239.351562 -447.367188 244.472656 -449.5 250.015625 -449.5 L 364.46875 -448.859375 C 371.28125 -448.859375 377.03125 -446.40625 381.71875 -441.5 C 386.414062 -436.601562 388.335938 -430.742188 387.484375 -423.921875 L 382.359375 -20.46875 C 382.359375 -14.070312 380.117188 -8.421875 375.640625 -3.515625 C 371.171875 1.390625 365.738281 3.84375 359.34375 3.84375 L 250.640625 3.84375 C 245.097656 3.84375 240.625 1.710938 237.21875 -2.546875 C 233.8125 -6.816406 231.253906 -10.65625 229.546875 -14.0625 L 156.65625 -164.96875 L 154.09375 -21.09375 C 154.09375 -13.425781 151.75 -7.351562 147.0625 -2.875 C 142.375 1.601562 137.046875 3.84375 131.078125 3.84375 Z M 22.375 3.84375 "/></g></g></g><g fill="#e26c52" fill-opacity="1"><g transform="translate(460.216158, 575.822304)"><g><path d="M 305.640625 54.984375 C 294.128906 54.554688 280.488281 54.34375 264.71875 54.34375 C 248.945312 54.34375 229.765625 54.34375 207.171875 54.34375 C 201.203125 54.34375 196.082031 52.210938 191.8125 47.953125 C 187.550781 43.691406 183.71875 38.148438 180.3125 31.328125 L 170.71875 7.671875 C 162.195312 6.816406 153.992188 5.75 146.109375 4.46875 C 138.222656 3.195312 130.867188 1.492188 124.046875 -0.640625 C 93.773438 -10.867188 69.796875 -23.757812 52.109375 -39.3125 C 34.421875 -54.875 21.632812 -75.867188 13.75 -102.296875 C 5.863281 -128.734375 1.28125 -162.835938 0 -204.609375 C 1.28125 -246.378906 5.96875 -283.78125 14.0625 -316.8125 C 22.164062 -349.851562 35.0625 -377.773438 52.75 -400.578125 C 70.4375 -423.390625 94.203125 -439.910156 124.046875 -450.140625 C 139.390625 -455.253906 156.863281 -458.128906 176.46875 -458.765625 C 196.082031 -459.410156 215.585938 -457.492188 234.984375 -453.015625 C 254.378906 -448.546875 271.109375 -441.40625 285.171875 -431.59375 C 306.054688 -417.101562 322.144531 -398.988281 333.4375 -377.25 C 344.738281 -355.507812 352.835938 -330.675781 357.734375 -302.75 C 362.640625 -274.832031 365.734375 -243.820312 367.015625 -209.71875 C 367.015625 -173.914062 362.21875 -140.664062 352.625 -109.96875 C 343.039062 -79.28125 325.457031 -53.066406 299.875 -31.328125 C 307.550781 -15.554688 315.863281 2.34375 324.8125 22.375 C 329.507812 32.601562 330.363281 40.703125 327.375 46.671875 C 324.394531 52.640625 317.148438 55.410156 305.640625 54.984375 Z M 143.859375 -219.3125 C 144.285156 -192.882812 148.335938 -172.847656 156.015625 -159.203125 C 163.691406 -145.566406 172.75 -138.425781 183.1875 -137.78125 C 193.632812 -137.144531 202.90625 -143.222656 211 -156.015625 C 219.101562 -168.804688 223.582031 -188.203125 224.4375 -214.203125 C 224.4375 -247.878906 220.382812 -273.664062 212.28125 -291.5625 C 204.1875 -309.46875 194.804688 -318.953125 184.140625 -320.015625 C 173.484375 -321.085938 164.101562 -313.3125 156 -296.6875 C 147.90625 -280.0625 143.859375 -254.269531 143.859375 -219.3125 Z M 143.859375 -219.3125 "/></g></g></g><g clip-path="url(#46697464c2)"><path fill="#e26c52" d="M 504.113281 277.230469 C 506.890625 240.546875 535.835938 211.601562 572.519531 208.824219 C 597.277344 206.949219 625.144531 205.335938 647.71875 205.335938 C 670.292969 205.335938 698.160156 206.949219 722.917969 208.824219 C 759.605469 211.601562 788.546875 240.546875 791.324219 277.230469 C 793.199219 301.988281 794.8125 329.855469 794.8125 352.429688 C 794.8125 375.003906 793.199219 402.871094 791.324219 427.628906 C 788.546875 464.316406 759.605469 493.257812 722.917969 496.035156 C 698.160156 497.910156 670.292969 499.527344 647.71875 499.527344 C 625.144531 499.527344 597.277344 497.910156 572.519531 496.035156 C 535.835938 493.257812 506.890625 464.316406 504.113281 427.628906 C 502.238281 402.871094 500.625 375.003906 500.625 352.429688 C 500.625 329.855469 502.238281 301.988281 504.113281 277.230469 Z M 504.113281 277.230469 " fill-opacity="1" fill-rule="nonzero"/></g><path fill="#ffffff" d="M 569.269531 304.996094 C 569.269531 287.867188 583.15625 273.980469 600.285156 273.980469 L 618.527344 273.980469 C 621.550781 273.980469 624 276.429688 624 279.453125 C 624 282.476562 621.550781 284.925781 618.527344 284.925781 L 600.285156 284.925781 C 589.199219 284.925781 580.214844 293.910156 580.214844 304.996094 L 580.214844 323.238281 C 580.214844 326.261719 577.765625 328.710938 574.742188 328.710938 C 571.71875 328.710938 569.269531 326.261719 569.269531 323.238281 Z M 671.4375 279.453125 C 671.4375 276.429688 673.886719 273.980469 676.910156 273.980469 L 695.15625 273.980469 C 712.285156 273.980469 726.171875 287.867188 726.171875 304.996094 L 726.171875 323.238281 C 726.171875 326.261719 723.71875 328.710938 720.695312 328.710938 C 717.671875 328.710938 715.222656 326.261719 715.222656 323.238281 L 715.222656 304.996094 C 715.222656 293.910156 706.238281 284.925781 695.15625 284.925781 L 676.910156 284.925781 C 673.886719 284.925781 671.4375 282.476562 671.4375 279.453125 Z M 574.742188 376.148438 C 577.765625 376.148438 580.214844 378.597656 580.214844 381.621094 L 580.214844 399.867188 C 580.214844 410.949219 589.199219 419.933594 600.285156 419.933594 L 618.527344 419.933594 C 621.550781 419.933594 624 422.386719 624 425.40625 C 624 428.429688 621.550781 430.882812 618.527344 430.882812 L 600.285156 430.882812 C 583.15625 430.882812 569.269531 416.996094 569.269531 399.867188 L 569.269531 381.621094 C 569.269531 378.597656 571.71875 376.148438 574.742188 376.148438 Z M 720.695312 376.148438 C 723.71875 376.148438 726.171875 378.597656 726.171875 381.621094 L 726.171875 396.214844 C 726.171875 399.238281 723.71875 401.691406 720.695312 401.691406 C 717.671875 401.691406 715.222656 399.238281 715.222656 396.214844 L 715.222656 381.621094 C 715.222656 378.597656 717.671875 376.148438 720.695312 376.148438 Z M 671.4375 425.40625 C 671.4375 422.386719 673.886719 419.933594 676.910156 419.933594 L 695.15625 419.933594 C 698.179688 419.933594 700.628906 422.386719 700.628906 425.40625 C 700.628906 428.429688 698.179688 430.882812 695.15625 430.882812 L 676.910156 430.882812 C 673.886719 430.882812 671.4375 428.429688 671.4375 425.40625 Z M 671.4375 425.40625 " fill-opacity="1" fill-rule="evenodd"/><path fill="#ffffff" d="M 587.511719 312.292969 C 587.511719 301.207031 596.496094 292.222656 607.582031 292.222656 L 622.175781 292.222656 C 633.257812 292.222656 642.246094 301.207031 642.246094 312.292969 L 642.246094 326.886719 C 642.246094 337.972656 633.257812 346.957031 622.175781 346.957031 L 607.582031 346.957031 C 596.496094 346.957031 587.511719 337.972656 587.511719 326.886719 Z M 607.582031 303.171875 C 602.542969 303.171875 598.457031 307.253906 598.457031 312.292969 L 598.457031 326.886719 C 598.457031 331.925781 602.542969 336.011719 607.582031 336.011719 L 622.175781 336.011719 C 627.214844 336.011719 631.296875 331.925781 631.296875 326.886719 L 631.296875 312.292969 C 631.296875 307.253906 627.214844 303.171875 622.175781 303.171875 Z M 607.582031 303.171875 " fill-opacity="1" fill-rule="evenodd"/><path fill="#ffffff" d="M 587.511719 377.972656 C 587.511719 366.890625 596.496094 357.902344 607.582031 357.902344 L 622.175781 357.902344 C 633.257812 357.902344 642.246094 366.890625 642.246094 377.972656 L 642.246094 392.566406 C 642.246094 403.652344 633.257812 412.636719 622.175781 412.636719 L 607.582031 412.636719 C 596.496094 412.636719 587.511719 403.652344 587.511719 392.566406 Z M 607.582031 368.851562 C 602.542969 368.851562 598.457031 372.933594 598.457031 377.972656 L 598.457031 392.566406 C 598.457031 397.605469 602.542969 401.691406 607.582031 401.691406 L 622.175781 401.691406 C 627.214844 401.691406 631.296875 397.605469 631.296875 392.566406 L 631.296875 377.972656 C 631.296875 372.933594 627.214844 368.851562 622.175781 368.851562 Z M 607.582031 368.851562 " fill-opacity="1" fill-rule="evenodd"/><path fill="#ffffff" d="M 653.195312 312.292969 C 653.195312 301.207031 662.179688 292.222656 673.265625 292.222656 L 687.863281 292.222656 C 698.945312 292.222656 707.929688 301.207031 707.929688 312.292969 L 707.929688 326.886719 C 707.929688 337.972656 698.945312 346.957031 687.863281 346.957031 L 673.265625 346.957031 C 662.179688 346.957031 653.195312 337.972656 653.195312 326.886719 Z M 673.265625 303.171875 C 668.226562 303.171875 664.144531 307.253906 664.144531 312.292969 L 664.144531 326.886719 C 664.144531 331.925781 668.226562 336.011719 673.265625 336.011719 L 687.863281 336.011719 C 692.898438 336.011719 696.984375 331.925781 696.984375 326.886719 L 696.984375 312.292969 C 696.984375 307.253906 692.898438 303.171875 687.863281 303.171875 Z M 673.265625 303.171875 " fill-opacity="1" fill-rule="evenodd"/><path fill="#ffffff" d="M 653.195312 377.972656 C 653.195312 366.890625 662.179688 357.902344 673.265625 357.902344 L 687.863281 357.902344 C 698.945312 357.902344 707.929688 366.890625 707.929688 377.972656 L 707.929688 392.566406 C 707.929688 403.652344 698.945312 412.636719 687.863281 412.636719 L 673.265625 412.636719 C 662.179688 412.636719 653.195312 403.652344 653.195312 392.566406 Z M 673.265625 368.851562 C 668.226562 368.851562 664.144531 372.933594 664.144531 377.972656 L 664.144531 392.566406 C 664.144531 397.605469 668.226562 401.691406 673.265625 401.691406 L 687.863281 401.691406 C 692.898438 401.691406 696.984375 397.605469 696.984375 392.566406 L 696.984375 377.972656 C 696.984375 372.933594 692.898438 368.851562 687.863281 368.851562 Z M 673.265625 368.851562 " fill-opacity="1" fill-rule="evenodd"/><g fill="#e26c52" fill-opacity="1"><g transform="translate(194.596199, 739.237325)"><g><path d="M 17.609375 0 C 16.429688 0 15.441406 -0.398438 14.640625 -1.203125 C 13.828125 -2.015625 13.421875 -3.046875 13.421875 -4.296875 L 13.984375 -50.859375 L 4.40625 -50.859375 C 3.226562 -50.785156 2.195312 -51.171875 1.3125 -52.015625 C 0.4375 -52.859375 0 -53.90625 0 -55.15625 L 0.21875 -73.75 C 0.363281 -75 0.820312 -76.023438 1.59375 -76.828125 C 2.363281 -77.640625 3.335938 -78.046875 4.515625 -78.046875 L 52.0625 -78.375 C 53.3125 -78.375 54.359375 -77.929688 55.203125 -77.046875 C 56.046875 -76.171875 56.429688 -75.109375 56.359375 -73.859375 L 55.8125 -55.03125 C 55.59375 -52.539062 54.234375 -51.1875 51.734375 -50.96875 L 42.828125 -50.96875 L 43.046875 -4.515625 C 43.191406 -3.265625 42.785156 -2.238281 41.828125 -1.4375 C 40.878906 -0.550781 39.851562 -0.109375 38.75 -0.109375 Z M 17.609375 0 "/></g></g></g><g fill="#e26c52" fill-opacity="1"><g transform="translate(255.3563, 739.237325)"><g><path d="M 36.546875 1.984375 C 34.117188 1.984375 33.09375 0.40625 33.46875 -2.75 C 27.445312 0.84375 21.28125 2.203125 14.96875 1.328125 C 11.375 0.804688 8.507812 -0.222656 6.375 -1.765625 C 4.25 -3.304688 2.707031 -5.117188 1.75 -7.203125 C 0.800781 -9.296875 0.269531 -11.441406 0.15625 -13.640625 C 0.0507812 -15.847656 0.144531 -17.867188 0.4375 -19.703125 C 1.03125 -22.710938 2.441406 -25.222656 4.671875 -27.234375 C 6.910156 -29.253906 9.625 -30.832031 12.8125 -31.96875 C 16.007812 -33.113281 19.222656 -33.757812 22.453125 -33.90625 L 33.46875 -34.5625 C 33.320312 -36.613281 33.132812 -38.242188 32.90625 -39.453125 C 32.6875 -40.671875 32.082031 -41.515625 31.09375 -41.984375 C 30.101562 -42.460938 28.25 -42.664062 25.53125 -42.59375 C 24.289062 -42.59375 23.359375 -42.265625 22.734375 -41.609375 C 22.109375 -40.953125 21.59375 -40.21875 21.1875 -39.40625 C 20.78125 -38.601562 20.335938 -37.90625 19.859375 -37.3125 C 19.390625 -36.726562 18.675781 -36.507812 17.71875 -36.65625 L 5.828125 -38.203125 C 4.804688 -38.347656 4.019531 -38.582031 3.46875 -38.90625 C 2.914062 -39.238281 2.640625 -39.847656 2.640625 -40.734375 C 2.640625 -43.441406 2.988281 -45.953125 3.6875 -48.265625 C 4.382812 -50.578125 5.816406 -52.59375 7.984375 -54.3125 C 10.148438 -56.039062 13.394531 -57.382812 17.71875 -58.34375 C 22.269531 -59.363281 26.671875 -59.835938 30.921875 -59.765625 C 35.179688 -59.691406 39.054688 -59.015625 42.546875 -57.734375 C 46.035156 -56.453125 48.894531 -54.488281 51.125 -51.84375 C 53.363281 -49.207031 54.742188 -45.796875 55.265625 -41.609375 C 55.335938 -41.023438 55.410156 -38.878906 55.484375 -35.171875 C 55.554688 -31.460938 55.628906 -26.691406 55.703125 -20.859375 C 55.773438 -15.023438 55.8125 -8.585938 55.8125 -1.546875 C 55.957031 -0.515625 55.609375 0.3125 54.765625 0.9375 C 53.921875 1.5625 53.164062 1.875 52.5 1.875 Z M 29.71875 -23.890625 C 27.445312 -23.890625 25.757812 -23.300781 24.65625 -22.125 C 23.550781 -20.945312 23.015625 -19.566406 23.046875 -17.984375 C 23.085938 -16.410156 23.695312 -15.035156 24.875 -13.859375 C 26.050781 -12.691406 27.773438 -12.109375 30.046875 -12.109375 C 31.367188 -12.109375 32.03125 -12.625 32.03125 -13.65625 L 32.03125 -22.34375 C 32.03125 -23.375 31.257812 -23.890625 29.71875 -23.890625 Z M 29.71875 -23.890625 "/></g></g></g><g fill="#e26c52" fill-opacity="1"><g transform="translate(315.566059, 739.237325)"><g><path d="M 31.703125 0.65625 C 31.046875 0.65625 30.421875 0.472656 29.828125 0.109375 C 29.390625 -0.398438 29.0625 -0.914062 28.84375 -1.4375 L 22.234375 -17.71875 L 22.5625 -2.859375 C 22.707031 -1.910156 22.414062 -1.066406 21.6875 -0.328125 C 20.945312 0.328125 20.140625 0.65625 19.265625 0.65625 L 3.296875 0.65625 C 2.421875 0.65625 1.6875 0.363281 1.09375 -0.21875 C 0.507812 -0.800781 0.21875 -1.644531 0.21875 -2.75 L 0 -74.40625 C 0 -75.21875 0.328125 -75.988281 0.984375 -76.71875 C 1.648438 -77.382812 2.382812 -77.71875 3.1875 -77.71875 L 17.828125 -77.71875 C 18.785156 -77.71875 19.59375 -77.382812 20.25 -76.71875 C 20.84375 -75.988281 21.140625 -75.21875 21.140625 -74.40625 L 21.796875 -40.0625 L 29.390625 -57.578125 C 29.679688 -58.378906 30.085938 -58.925781 30.609375 -59.21875 C 30.972656 -59.363281 31.503906 -59.472656 32.203125 -59.546875 C 32.898438 -59.617188 33.429688 -59.65625 33.796875 -59.65625 L 47.78125 -59.65625 C 48.800781 -59.65625 49.644531 -59.144531 50.3125 -58.125 C 50.96875 -57.09375 51.078125 -56.0625 50.640625 -55.03125 L 39.296875 -29.28125 L 50.859375 -3.625 C 51.222656 -2.457031 51.078125 -1.394531 50.421875 -0.4375 C 49.753906 0.4375 48.832031 0.875 47.65625 0.875 Z M 31.703125 0.65625 "/></g></g></g><g fill="#e26c52" fill-opacity="1"><g transform="translate(371.042688, 739.237325)"><g><path d="M 37.203125 1.4375 C 31.035156 2.820312 25.382812 2.742188 20.25 1.203125 C 15.113281 -0.328125 10.835938 -3.035156 7.421875 -6.921875 C 4.015625 -10.816406 1.757812 -15.59375 0.65625 -21.25 C -0.21875 -26.382812 -0.179688 -31.554688 0.765625 -36.765625 C 1.722656 -41.972656 3.742188 -46.375 6.828125 -49.96875 C 9.171875 -52.6875 12.101562 -54.832031 15.625 -56.40625 C 19.15625 -57.988281 22.9375 -58.960938 26.96875 -59.328125 C 31 -59.691406 34.925781 -59.363281 38.75 -58.34375 C 42.414062 -57.382812 45.40625 -55.859375 47.71875 -53.765625 C 50.03125 -51.679688 51.789062 -49.316406 53 -46.671875 C 54.207031 -44.023438 55.015625 -41.414062 55.421875 -38.84375 C 55.828125 -36.28125 55.921875 -34.046875 55.703125 -32.140625 L 55.375 -25.875 C 55.375 -24.84375 54.859375 -24.328125 53.828125 -24.328125 L 23.5625 -24.328125 C 23.851562 -21.242188 24.507812 -18.875 25.53125 -17.21875 C 26.5625 -15.570312 28.253906 -15.191406 30.609375 -16.078125 C 31.628906 -16.585938 32.265625 -17.039062 32.515625 -17.4375 C 32.773438 -17.84375 32.90625 -18.304688 32.90625 -18.828125 C 32.976562 -19.703125 33.328125 -20.210938 33.953125 -20.359375 C 34.578125 -20.503906 35.367188 -20.503906 36.328125 -20.359375 L 50.3125 -18.828125 C 51.332031 -18.753906 52.117188 -18.53125 52.671875 -18.15625 C 53.222656 -17.789062 53.5 -17.171875 53.5 -16.296875 C 53.5 -13.578125 53.054688 -11.0625 52.171875 -8.75 C 51.296875 -6.4375 49.679688 -4.414062 47.328125 -2.6875 C 44.984375 -0.96875 41.609375 0.40625 37.203125 1.4375 Z M 23.78125 -35.21875 L 34.5625 -35.21875 C 34.5625 -36.03125 34.429688 -37.039062 34.171875 -38.25 C 33.921875 -39.457031 33.28125 -40.320312 32.25 -40.84375 C 29.757812 -41.644531 27.851562 -41.550781 26.53125 -40.5625 C 25.207031 -39.570312 24.289062 -37.789062 23.78125 -35.21875 Z M 23.78125 -35.21875 "/></g></g></g><g fill="#e26c52" fill-opacity="1"><g transform="translate(431.252446, 739.237325)"><g/></g></g><g fill="#e26c52" fill-opacity="1"><g transform="translate(468.677149, 739.237325)"><g><path d="M 36.546875 1.984375 C 34.117188 1.984375 33.09375 0.40625 33.46875 -2.75 C 27.445312 0.84375 21.28125 2.203125 14.96875 1.328125 C 11.375 0.804688 8.507812 -0.222656 6.375 -1.765625 C 4.25 -3.304688 2.707031 -5.117188 1.75 -7.203125 C 0.800781 -9.296875 0.269531 -11.441406 0.15625 -13.640625 C 0.0507812 -15.847656 0.144531 -17.867188 0.4375 -19.703125 C 1.03125 -22.710938 2.441406 -25.222656 4.671875 -27.234375 C 6.910156 -29.253906 9.625 -30.832031 12.8125 -31.96875 C 16.007812 -33.113281 19.222656 -33.757812 22.453125 -33.90625 L 33.46875 -34.5625 C 33.320312 -36.613281 33.132812 -38.242188 32.90625 -39.453125 C 32.6875 -40.671875 32.082031 -41.515625 31.09375 -41.984375 C 30.101562 -42.460938 28.25 -42.664062 25.53125 -42.59375 C 24.289062 -42.59375 23.359375 -42.265625 22.734375 -41.609375 C 22.109375 -40.953125 21.59375 -40.21875 21.1875 -39.40625 C 20.78125 -38.601562 20.335938 -37.90625 19.859375 -37.3125 C 19.390625 -36.726562 18.675781 -36.507812 17.71875 -36.65625 L 5.828125 -38.203125 C 4.804688 -38.347656 4.019531 -38.582031 3.46875 -38.90625 C 2.914062 -39.238281 2.640625 -39.847656 2.640625 -40.734375 C 2.640625 -43.441406 2.988281 -45.953125 3.6875 -48.265625 C 4.382812 -50.578125 5.816406 -52.59375 7.984375 -54.3125 C 10.148438 -56.039062 13.394531 -57.382812 17.71875 -58.34375 C 22.269531 -59.363281 26.671875 -59.835938 30.921875 -59.765625 C 35.179688 -59.691406 39.054688 -59.015625 42.546875 -57.734375 C 46.035156 -56.453125 48.894531 -54.488281 51.125 -51.84375 C 53.363281 -49.207031 54.742188 -45.796875 55.265625 -41.609375 C 55.335938 -41.023438 55.410156 -38.878906 55.484375 -35.171875 C 55.554688 -31.460938 55.628906 -26.691406 55.703125 -20.859375 C 55.773438 -15.023438 55.8125 -8.585938 55.8125 -1.546875 C 55.957031 -0.515625 55.609375 0.3125 54.765625 0.9375 C 53.921875 1.5625 53.164062 1.875 52.5 1.875 Z M 29.71875 -23.890625 C 27.445312 -23.890625 25.757812 -23.300781 24.65625 -22.125 C 23.550781 -20.945312 23.015625 -19.566406 23.046875 -17.984375 C 23.085938 -16.410156 23.695312 -15.035156 24.875 -13.859375 C 26.050781 -12.691406 27.773438 -12.109375 30.046875 -12.109375 C 31.367188 -12.109375 32.03125 -12.625 32.03125 -13.65625 L 32.03125 -22.34375 C 32.03125 -23.375 31.257812 -23.890625 29.71875 -23.890625 Z M 29.71875 -23.890625 "/></g></g></g><g fill="#e26c52" fill-opacity="1"><g transform="translate(528.886908, 739.237325)"><g/></g></g><g fill="#e26c52" fill-opacity="1"><g transform="translate(566.311611, 739.237325)"><g><path d="M 2.96875 1.65625 C 2.019531 1.4375 1.394531 0.957031 1.09375 0.21875 C 0.800781 -0.507812 0.65625 -1.351562 0.65625 -2.3125 L 0.65625 -14.96875 C 0.65625 -16.070312 1.207031 -16.820312 2.3125 -17.21875 C 3.414062 -17.625 4.773438 -17.828125 6.390625 -17.828125 C 8.003906 -17.828125 9.632812 -17.769531 11.28125 -17.65625 C 12.9375 -17.550781 14.347656 -17.535156 15.515625 -17.609375 C 17.429688 -17.753906 18.71875 -18.226562 19.375 -19.03125 C 20.03125 -19.84375 20.066406 -20.765625 19.484375 -21.796875 C 18.898438 -22.828125 17.648438 -23.707031 15.734375 -24.4375 C 10.234375 -26.488281 6.234375 -28.6875 3.734375 -31.03125 C 1.242188 -33.382812 0 -36.582031 0 -40.625 C 0 -43.695312 0.4375 -46.484375 1.3125 -48.984375 C 2.195312 -51.484375 3.851562 -53.6875 6.28125 -55.59375 C 8.625 -57.5 11.535156 -58.707031 15.015625 -59.21875 C 18.503906 -59.738281 21.789062 -60.035156 24.875 -60.109375 C 25.832031 -60.109375 27.265625 -60.109375 29.171875 -60.109375 C 31.078125 -60.109375 33.078125 -60.050781 35.171875 -59.9375 C 37.265625 -59.820312 39.117188 -59.632812 40.734375 -59.375 C 42.347656 -59.125 43.375 -58.78125 43.8125 -58.34375 C 44.175781 -57.976562 44.394531 -57.390625 44.46875 -56.578125 C 44.539062 -55.773438 44.578125 -54.398438 44.578125 -52.453125 C 44.578125 -50.503906 44.539062 -47.550781 44.46875 -43.59375 C 44.46875 -41.46875 43.257812 -40.40625 40.84375 -40.40625 C 39.519531 -40.40625 38.03125 -40.457031 36.375 -40.5625 C 34.726562 -40.675781 33.171875 -40.710938 31.703125 -40.671875 C 30.234375 -40.640625 29.097656 -40.4375 28.296875 -40.0625 C 26.898438 -39.550781 26.109375 -38.671875 25.921875 -37.421875 C 25.734375 -36.179688 26.523438 -35.15625 28.296875 -34.34375 C 29.316406 -33.832031 30.578125 -33.28125 32.078125 -32.6875 C 33.585938 -32.101562 35.078125 -31.484375 36.546875 -30.828125 C 40.648438 -28.910156 43.488281 -26.265625 45.0625 -22.890625 C 46.644531 -19.515625 46.890625 -15.773438 45.796875 -11.671875 C 45.347656 -9.910156 44.703125 -8.222656 43.859375 -6.609375 C 43.015625 -4.992188 41.820312 -3.5625 40.28125 -2.3125 C 37.132812 0.113281 32.273438 1.488281 25.703125 1.8125 C 19.128906 2.144531 11.550781 2.09375 2.96875 1.65625 Z M 2.96875 1.65625 "/></g></g></g><g fill="#e26c52" fill-opacity="1"><g transform="translate(617.165193, 739.237325)"><g><path d="M 37.203125 1.4375 C 31.035156 2.820312 25.382812 2.742188 20.25 1.203125 C 15.113281 -0.328125 10.835938 -3.035156 7.421875 -6.921875 C 4.015625 -10.816406 1.757812 -15.59375 0.65625 -21.25 C -0.21875 -26.382812 -0.179688 -31.554688 0.765625 -36.765625 C 1.722656 -41.972656 3.742188 -46.375 6.828125 -49.96875 C 9.171875 -52.6875 12.101562 -54.832031 15.625 -56.40625 C 19.15625 -57.988281 22.9375 -58.960938 26.96875 -59.328125 C 31 -59.691406 34.925781 -59.363281 38.75 -58.34375 C 42.414062 -57.382812 45.40625 -55.859375 47.71875 -53.765625 C 50.03125 -51.679688 51.789062 -49.316406 53 -46.671875 C 54.207031 -44.023438 55.015625 -41.414062 55.421875 -38.84375 C 55.828125 -36.28125 55.921875 -34.046875 55.703125 -32.140625 L 55.375 -25.875 C 55.375 -24.84375 54.859375 -24.328125 53.828125 -24.328125 L 23.5625 -24.328125 C 23.851562 -21.242188 24.507812 -18.875 25.53125 -17.21875 C 26.5625 -15.570312 28.253906 -15.191406 30.609375 -16.078125 C 31.628906 -16.585938 32.265625 -17.039062 32.515625 -17.4375 C 32.773438 -17.84375 32.90625 -18.304688 32.90625 -18.828125 C 32.976562 -19.703125 33.328125 -20.210938 33.953125 -20.359375 C 34.578125 -20.503906 35.367188 -20.503906 36.328125 -20.359375 L 50.3125 -18.828125 C 51.332031 -18.753906 52.117188 -18.53125 52.671875 -18.15625 C 53.222656 -17.789062 53.5 -17.171875 53.5 -16.296875 C 53.5 -13.578125 53.054688 -11.0625 52.171875 -8.75 C 51.296875 -6.4375 49.679688 -4.414062 47.328125 -2.6875 C 44.984375 -0.96875 41.609375 0.40625 37.203125 1.4375 Z M 23.78125 -35.21875 L 34.5625 -35.21875 C 34.5625 -36.03125 34.429688 -37.039062 34.171875 -38.25 C 33.921875 -39.457031 33.28125 -40.320312 32.25 -40.84375 C 29.757812 -41.644531 27.851562 -41.550781 26.53125 -40.5625 C 25.207031 -39.570312 24.289062 -37.789062 23.78125 -35.21875 Z M 23.78125 -35.21875 "/></g></g></g><g fill="#e26c52" fill-opacity="1"><g transform="translate(677.374952, 739.237325)"><g><path d="M 36.546875 1.984375 C 34.117188 1.984375 33.09375 0.40625 33.46875 -2.75 C 27.445312 0.84375 21.28125 2.203125 14.96875 1.328125 C 11.375 0.804688 8.507812 -0.222656 6.375 -1.765625 C 4.25 -3.304688 2.707031 -5.117188 1.75 -7.203125 C 0.800781 -9.296875 0.269531 -11.441406 0.15625 -13.640625 C 0.0507812 -15.847656 0.144531 -17.867188 0.4375 -19.703125 C 1.03125 -22.710938 2.441406 -25.222656 4.671875 -27.234375 C 6.910156 -29.253906 9.625 -30.832031 12.8125 -31.96875 C 16.007812 -33.113281 19.222656 -33.757812 22.453125 -33.90625 L 33.46875 -34.5625 C 33.320312 -36.613281 33.132812 -38.242188 32.90625 -39.453125 C 32.6875 -40.671875 32.082031 -41.515625 31.09375 -41.984375 C 30.101562 -42.460938 28.25 -42.664062 25.53125 -42.59375 C 24.289062 -42.59375 23.359375 -42.265625 22.734375 -41.609375 C 22.109375 -40.953125 21.59375 -40.21875 21.1875 -39.40625 C 20.78125 -38.601562 20.335938 -37.90625 19.859375 -37.3125 C 19.390625 -36.726562 18.675781 -36.507812 17.71875 -36.65625 L 5.828125 -38.203125 C 4.804688 -38.347656 4.019531 -38.582031 3.46875 -38.90625 C 2.914062 -39.238281 2.640625 -39.847656 2.640625 -40.734375 C 2.640625 -43.441406 2.988281 -45.953125 3.6875 -48.265625 C 4.382812 -50.578125 5.816406 -52.59375 7.984375 -54.3125 C 10.148438 -56.039062 13.394531 -57.382812 17.71875 -58.34375 C 22.269531 -59.363281 26.671875 -59.835938 30.921875 -59.765625 C 35.179688 -59.691406 39.054688 -59.015625 42.546875 -57.734375 C 46.035156 -56.453125 48.894531 -54.488281 51.125 -51.84375 C 53.363281 -49.207031 54.742188 -45.796875 55.265625 -41.609375 C 55.335938 -41.023438 55.410156 -38.878906 55.484375 -35.171875 C 55.554688 -31.460938 55.628906 -26.691406 55.703125 -20.859375 C 55.773438 -15.023438 55.8125 -8.585938 55.8125 -1.546875 C 55.957031 -0.515625 55.609375 0.3125 54.765625 0.9375 C 53.921875 1.5625 53.164062 1.875 52.5 1.875 Z M 29.71875 -23.890625 C 27.445312 -23.890625 25.757812 -23.300781 24.65625 -22.125 C 23.550781 -20.945312 23.015625 -19.566406 23.046875 -17.984375 C 23.085938 -16.410156 23.695312 -15.035156 24.875 -13.859375 C 26.050781 -12.691406 27.773438 -12.109375 30.046875 -12.109375 C 31.367188 -12.109375 32.03125 -12.625 32.03125 -13.65625 L 32.03125 -22.34375 C 32.03125 -23.375 31.257812 -23.890625 29.71875 -23.890625 Z M 29.71875 -23.890625 "/></g></g></g><g fill="#e26c52" fill-opacity="1"><g transform="translate(737.58471, 739.237325)"><g><path d="M 11.125 0.765625 C 10.238281 0.765625 9.503906 0.363281 8.921875 -0.4375 C 8.253906 -1.25 7.921875 -2.3125 7.921875 -3.625 L 7.8125 -41.171875 L 3.859375 -41.0625 C 2.316406 -40.988281 1.285156 -41.265625 0.765625 -41.890625 C 0.253906 -42.515625 0 -43.265625 0 -44.140625 L 0 -55.375 C 0 -56.394531 0.3125 -57.234375 0.9375 -57.890625 C 1.5625 -58.554688 2.535156 -58.890625 3.859375 -58.890625 L 7.703125 -58.890625 L 7.703125 -74.1875 C 7.703125 -75.289062 8.035156 -76.320312 8.703125 -77.28125 C 9.359375 -78.15625 10.125 -78.59375 11 -78.59375 L 26.53125 -78.59375 C 27.476562 -78.59375 28.285156 -78.15625 28.953125 -77.28125 C 29.609375 -76.394531 29.9375 -75.363281 29.9375 -74.1875 L 30.15625 -59.21875 L 33.578125 -59.21875 C 35.265625 -59.21875 36.363281 -58.882812 36.875 -58.21875 C 37.382812 -57.5625 37.640625 -56.796875 37.640625 -55.921875 L 37.859375 -44.796875 C 37.859375 -43.921875 37.691406 -43.1875 37.359375 -42.59375 C 37.035156 -42.007812 36.101562 -41.679688 34.5625 -41.609375 L 30.375 -41.5 L 30.9375 -3.859375 C 31.082031 -2.609375 30.75 -1.539062 29.9375 -0.65625 C 29.207031 0.21875 28.4375 0.65625 27.625 0.65625 Z M 11.125 0.765625 "/></g></g></g><g fill="#e26c52" fill-opacity="1"><g transform="translate(56.338336, 853.818082)"><g><path d="M 4.8125 1.375 C 3.34375 1.007812 2.351562 0.253906 1.84375 -0.890625 C 1.34375 -2.035156 1.09375 -3.429688 1.09375 -5.078125 L 1.09375 -25.421875 C 1.09375 -27.160156 1.960938 -28.347656 3.703125 -28.984375 C 5.453125 -29.628906 7.628906 -29.972656 10.234375 -30.015625 C 12.847656 -30.066406 15.503906 -30 18.203125 -29.8125 C 20.910156 -29.632812 23.179688 -29.59375 25.015625 -29.6875 C 28.128906 -29.863281 30.234375 -30.59375 31.328125 -31.875 C 32.429688 -33.164062 32.5 -34.65625 31.53125 -36.34375 C 30.570312 -38.039062 28.535156 -39.441406 25.421875 -40.546875 C 19.554688 -42.742188 14.742188 -45.007812 10.984375 -47.34375 C 7.234375 -49.675781 4.460938 -52.398438 2.671875 -55.515625 C 0.890625 -58.628906 0 -62.382812 0 -66.78125 C 0 -71.726562 0.707031 -76.191406 2.125 -80.171875 C 3.550781 -84.160156 6.1875 -87.671875 10.03125 -90.703125 C 12.59375 -92.710938 15.566406 -94.222656 18.953125 -95.234375 C 22.347656 -96.242188 25.898438 -96.929688 29.609375 -97.296875 C 33.328125 -97.660156 36.832031 -97.890625 40.125 -97.984375 C 41.6875 -98.078125 44 -98.125 47.0625 -98.125 C 50.132812 -98.125 53.34375 -98.03125 56.6875 -97.84375 C 60.03125 -97.65625 63.003906 -97.351562 65.609375 -96.9375 C 68.222656 -96.53125 69.851562 -95.960938 70.5 -95.234375 C 71.050781 -94.585938 71.414062 -93.625 71.59375 -92.34375 C 71.78125 -91.0625 71.847656 -88.863281 71.796875 -85.75 C 71.753906 -82.632812 71.6875 -77.867188 71.59375 -71.453125 C 71.59375 -68.160156 69.625 -66.515625 65.6875 -66.515625 C 63.582031 -66.515625 61.222656 -66.582031 58.609375 -66.71875 C 55.992188 -66.851562 53.492188 -66.921875 51.109375 -66.921875 C 48.734375 -66.921875 46.90625 -66.601562 45.625 -65.96875 C 43.425781 -64.957031 42.164062 -63.46875 41.84375 -61.5 C 41.519531 -59.53125 42.78125 -57.8125 45.625 -56.34375 C 47.269531 -55.519531 49.304688 -54.648438 51.734375 -53.734375 C 54.160156 -52.816406 56.519531 -51.851562 58.8125 -50.84375 C 65.40625 -47.726562 69.9375 -43.46875 72.40625 -38.0625 C 74.882812 -32.65625 75.347656 -26.703125 73.796875 -20.203125 C 73.148438 -17.359375 72.09375 -14.609375 70.625 -11.953125 C 69.164062 -9.296875 67.242188 -7.003906 64.859375 -5.078125 C 61.566406 -2.421875 56.941406 -0.546875 50.984375 0.546875 C 45.023438 1.648438 38.128906 2.175781 30.296875 2.125 C 22.460938 2.082031 13.96875 1.832031 4.8125 1.375 Z M 4.8125 1.375 "/></g></g></g><g fill="#e26c52" fill-opacity="1"><g transform="translate(136.584035, 853.818082)"><g><path d="M 48.375 1.921875 C 43.601562 3.023438 38.695312 3.367188 33.65625 2.953125 C 28.625 2.546875 23.910156 1.378906 19.515625 -0.546875 C 15.117188 -2.472656 11.453125 -5.128906 8.515625 -8.515625 C 4.671875 -13.097656 2.148438 -18.617188 0.953125 -25.078125 C -0.234375 -31.535156 -0.273438 -37.972656 0.828125 -44.390625 C 2.203125 -51.535156 5.019531 -57.554688 9.28125 -62.453125 C 13.539062 -67.359375 18.875 -70.769531 25.28125 -72.6875 C 31.695312 -74.613281 38.753906 -74.617188 46.453125 -72.703125 C 51.578125 -71.503906 55.582031 -69.78125 58.46875 -67.53125 C 61.351562 -65.289062 63.414062 -62.75 64.65625 -59.90625 C 65.894531 -57.070312 66.648438 -54.234375 66.921875 -51.390625 C 67.203125 -48.554688 67.25 -45.945312 67.0625 -43.5625 C 66.96875 -41.457031 65.546875 -40.265625 62.796875 -39.984375 L 45.90625 -39.578125 C 44.707031 -39.390625 43.625 -39.660156 42.65625 -40.390625 C 41.695312 -41.128906 41.175781 -42.050781 41.09375 -43.15625 C 41.09375 -43.613281 41.019531 -44.367188 40.875 -45.421875 C 40.738281 -46.472656 40.488281 -47.546875 40.125 -48.640625 C 39.757812 -49.742188 39.117188 -50.476562 38.203125 -50.84375 C 35.734375 -51.757812 33.851562 -51.550781 32.5625 -50.21875 C 31.28125 -48.894531 30.390625 -46.8125 29.890625 -43.96875 C 29.390625 -41.132812 29.140625 -37.835938 29.140625 -34.078125 L 29.140625 -33.53125 C 29.222656 -28.21875 30.179688 -24.273438 32.015625 -21.703125 C 33.847656 -19.140625 36.597656 -18.546875 40.265625 -19.921875 C 41.085938 -20.378906 41.703125 -21.132812 42.109375 -22.1875 C 42.523438 -23.25 42.800781 -24.328125 42.9375 -25.421875 C 43.082031 -26.523438 43.15625 -27.304688 43.15625 -27.765625 C 43.238281 -28.765625 43.757812 -29.628906 44.71875 -30.359375 C 45.6875 -31.097656 46.765625 -31.375 47.953125 -31.1875 L 64.71875 -30.78125 C 67.375 -30.507812 68.84375 -29.273438 69.125 -27.078125 C 69.21875 -24.785156 69.125 -22.21875 68.84375 -19.375 C 68.570312 -16.53125 67.816406 -13.710938 66.578125 -10.921875 C 65.335938 -8.128906 63.273438 -5.585938 60.390625 -3.296875 C 57.503906 -1.003906 53.5 0.734375 48.375 1.921875 Z M 48.375 1.921875 "/></g></g></g><g fill="#e26c52" fill-opacity="1"><g transform="translate(211.333444, 853.818082)"><g><path d="M 45.625 2.46875 C 42.601562 2.46875 41.320312 0.5 41.78125 -3.4375 C 34.257812 1.050781 26.5625 2.75 18.6875 1.65625 C 14.195312 1.007812 10.625 -0.269531 7.96875 -2.1875 C 5.3125 -4.113281 3.382812 -6.382812 2.1875 -9 C 1 -11.613281 0.335938 -14.289062 0.203125 -17.03125 C 0.0664062 -19.78125 0.179688 -22.300781 0.546875 -24.59375 C 1.285156 -28.351562 3.050781 -31.492188 5.84375 -34.015625 C 8.632812 -36.535156 12.019531 -38.503906 16 -39.921875 C 19.988281 -41.335938 24 -42.140625 28.03125 -42.328125 L 41.78125 -43.15625 C 41.59375 -45.71875 41.359375 -47.753906 41.078125 -49.265625 C 40.804688 -50.773438 40.050781 -51.828125 38.8125 -52.421875 C 37.582031 -53.015625 35.269531 -53.269531 31.875 -53.1875 C 30.320312 -53.1875 29.15625 -52.769531 28.375 -51.9375 C 27.59375 -51.113281 26.953125 -50.195312 26.453125 -49.1875 C 25.953125 -48.1875 25.398438 -47.316406 24.796875 -46.578125 C 24.203125 -45.847656 23.3125 -45.578125 22.125 -45.765625 L 7.28125 -47.6875 C 6 -47.863281 5.015625 -48.160156 4.328125 -48.578125 C 3.640625 -48.992188 3.296875 -49.75 3.296875 -50.84375 C 3.296875 -54.238281 3.726562 -57.378906 4.59375 -60.265625 C 5.46875 -63.148438 7.253906 -65.664062 9.953125 -67.8125 C 12.660156 -69.96875 16.71875 -71.640625 22.125 -72.828125 C 27.800781 -74.109375 33.296875 -74.703125 38.609375 -74.609375 C 43.929688 -74.523438 48.765625 -73.679688 53.109375 -72.078125 C 57.460938 -70.472656 61.035156 -68.019531 63.828125 -64.71875 C 66.628906 -61.425781 68.347656 -57.171875 68.984375 -51.953125 C 69.078125 -51.210938 69.164062 -48.53125 69.25 -43.90625 C 69.34375 -39.28125 69.4375 -33.320312 69.53125 -26.03125 C 69.625 -18.75 69.671875 -10.710938 69.671875 -1.921875 C 69.859375 -0.640625 69.421875 0.390625 68.359375 1.171875 C 67.304688 1.953125 66.367188 2.34375 65.546875 2.34375 Z M 37.109375 -29.828125 C 34.265625 -29.828125 32.15625 -29.09375 30.78125 -27.625 C 29.40625 -26.15625 28.738281 -24.4375 28.78125 -22.46875 C 28.832031 -20.5 29.585938 -18.78125 31.046875 -17.3125 C 32.515625 -15.84375 34.671875 -15.109375 37.515625 -15.109375 C 39.160156 -15.109375 39.984375 -15.753906 39.984375 -17.046875 L 39.984375 -27.890625 C 39.984375 -29.179688 39.023438 -29.828125 37.109375 -29.828125 Z M 37.109375 -29.828125 "/></g></g></g><g fill="#e26c52" fill-opacity="1"><g transform="translate(286.495065, 853.818082)"><g><path d="M 48.09375 1.234375 C 47 1.234375 46.039062 0.6875 45.21875 -0.40625 C 44.382812 -1.507812 43.96875 -2.75 43.96875 -4.125 L 44.25 -38.203125 C 43.976562 -42.960938 43.0625 -46.738281 41.5 -49.53125 C 39.945312 -52.332031 37.472656 -53.140625 34.078125 -51.953125 C 32.890625 -51.398438 31.695312 -50.570312 30.5 -49.46875 C 29.3125 -48.375 28.628906 -46.726562 28.453125 -44.53125 L 29.40625 -3.4375 C 29.59375 -2.15625 29.066406 -1.125 27.828125 -0.34375 C 26.585938 0.4375 25.421875 0.828125 24.328125 0.828125 L 5.21875 0.96875 C 3.84375 0.96875 2.675781 0.578125 1.71875 -0.203125 C 0.757812 -0.984375 0.28125 -2.015625 0.28125 -3.296875 L 0 -70.359375 C 0 -71.460938 0.5 -72.445312 1.5 -73.3125 C 2.507812 -74.1875 3.660156 -74.625 4.953125 -74.625 L 22.8125 -74.625 C 24.363281 -74.625 25.554688 -74.210938 26.390625 -73.390625 C 33.441406 -74.753906 39.828125 -75.140625 45.546875 -74.546875 C 51.273438 -73.953125 55.972656 -72.554688 59.640625 -70.359375 C 62.941406 -68.429688 65.503906 -66.34375 67.328125 -64.09375 C 69.160156 -61.851562 70.441406 -59.242188 71.171875 -56.265625 C 71.910156 -53.296875 72.367188 -49.75 72.546875 -45.625 C 72.734375 -41.5 72.828125 -36.597656 72.828125 -30.921875 L 72.703125 -4.125 C 72.703125 -2.65625 72.285156 -1.414062 71.453125 -0.40625 C 70.535156 0.6875 69.53125 1.234375 68.4375 1.234375 Z M 48.09375 1.234375 "/></g></g></g><g fill="#e26c52" fill-opacity="1"><g transform="translate(364.81704, 853.818082)"><g/></g></g><g fill="#e26c52" fill-opacity="1"><g transform="translate(411.535425, 853.818082)"><g><path d="M 13.875 0.96875 C 12.78125 0.96875 11.863281 0.460938 11.125 -0.546875 C 10.300781 -1.554688 9.890625 -2.882812 9.890625 -4.53125 L 9.75 -51.390625 L 4.8125 -51.265625 C 2.882812 -51.171875 1.597656 -51.507812 0.953125 -52.28125 C 0.316406 -53.0625 0 -54.003906 0 -55.109375 L 0 -69.125 C 0 -70.40625 0.390625 -71.457031 1.171875 -72.28125 C 1.953125 -73.101562 3.164062 -73.515625 4.8125 -73.515625 L 9.625 -73.515625 L 9.625 -92.625 C 9.625 -94 10.035156 -95.28125 10.859375 -96.46875 C 11.679688 -97.570312 12.640625 -98.125 13.734375 -98.125 L 33.125 -98.125 C 34.3125 -98.125 35.316406 -97.570312 36.140625 -96.46875 C 36.960938 -95.375 37.375 -94.09375 37.375 -92.625 L 37.65625 -73.9375 L 41.90625 -73.9375 C 44.019531 -73.9375 45.394531 -73.519531 46.03125 -72.6875 C 46.675781 -71.863281 47 -70.90625 47 -69.8125 L 47.265625 -55.9375 C 47.265625 -54.832031 47.054688 -53.910156 46.640625 -53.171875 C 46.234375 -52.441406 45.070312 -52.035156 43.15625 -51.953125 L 37.921875 -51.8125 L 38.609375 -4.8125 C 38.796875 -3.25 38.382812 -1.921875 37.375 -0.828125 C 36.457031 0.273438 35.5 0.828125 34.5 0.828125 Z M 13.875 0.96875 "/></g></g></g><g fill="#e26c52" fill-opacity="1"><g transform="translate(464.299715, 853.818082)"><g><path d="M 25.28125 0.6875 C 19.144531 -0.957031 14.265625 -3.0625 10.640625 -5.625 C 7.023438 -8.195312 4.414062 -11.65625 2.8125 -16 C 1.207031 -20.351562 0.269531 -25.921875 0 -32.703125 C 0.269531 -39.578125 1.226562 -45.691406 2.875 -51.046875 C 4.53125 -56.410156 7.144531 -60.921875 10.71875 -64.578125 C 14.289062 -68.242188 19.144531 -70.953125 25.28125 -72.703125 C 28.394531 -73.617188 31.96875 -74.117188 36 -74.203125 C 40.03125 -74.296875 44.015625 -73.972656 47.953125 -73.234375 C 51.898438 -72.503906 55.335938 -71.316406 58.265625 -69.671875 C 64.679688 -66.097656 68.988281 -61.265625 71.1875 -55.171875 C 73.382812 -49.078125 74.664062 -41.863281 75.03125 -33.53125 C 75.03125 -27.113281 73.835938 -21.222656 71.453125 -15.859375 C 69.078125 -10.503906 64.679688 -6.039062 58.265625 -2.46875 C 55.335938 -0.914062 51.898438 0.222656 47.953125 0.953125 C 44.015625 1.691406 40.03125 2.015625 36 1.921875 C 31.96875 1.828125 28.394531 1.414062 25.28125 0.6875 Z M 29.40625 -35.046875 C 29.5 -30.734375 30.347656 -27.453125 31.953125 -25.203125 C 33.554688 -22.960938 35.390625 -21.796875 37.453125 -21.703125 C 39.515625 -21.617188 41.390625 -22.628906 43.078125 -24.734375 C 44.773438 -26.835938 45.71875 -30 45.90625 -34.21875 C 45.90625 -39.71875 45.054688 -43.929688 43.359375 -46.859375 C 41.660156 -49.796875 39.734375 -51.351562 37.578125 -51.53125 C 35.429688 -51.71875 33.53125 -50.457031 31.875 -47.75 C 30.226562 -45.050781 29.40625 -40.816406 29.40625 -35.046875 Z M 29.40625 -35.046875 "/></g></g></g><g fill="#e26c52" fill-opacity="1"><g transform="translate(544.82022, 853.818082)"><g/></g></g><g fill="#e26c52" fill-opacity="1"><g transform="translate(591.538605, 853.818082)"><g><path d="M 46.453125 1.78125 C 38.753906 3.519531 31.695312 3.425781 25.28125 1.5 C 18.875 -0.414062 13.539062 -3.800781 9.28125 -8.65625 C 5.019531 -13.507812 2.203125 -19.460938 0.828125 -26.515625 C -0.273438 -32.929688 -0.234375 -39.390625 0.953125 -45.890625 C 2.148438 -52.398438 4.671875 -57.898438 8.515625 -62.390625 C 11.453125 -65.773438 15.117188 -68.453125 19.515625 -70.421875 C 23.910156 -72.398438 28.625 -73.613281 33.65625 -74.0625 C 38.695312 -74.519531 43.601562 -74.109375 48.375 -72.828125 C 52.957031 -71.640625 56.691406 -69.738281 59.578125 -67.125 C 62.460938 -64.519531 64.660156 -61.566406 66.171875 -58.265625 C 67.679688 -54.960938 68.6875 -51.707031 69.1875 -48.5 C 69.695312 -45.300781 69.8125 -42.507812 69.53125 -40.125 L 69.125 -32.296875 C 69.125 -31.015625 68.484375 -30.375 67.203125 -30.375 L 29.40625 -30.375 C 29.769531 -26.519531 30.59375 -23.5625 31.875 -21.5 C 33.164062 -19.445312 35.273438 -18.96875 38.203125 -20.0625 C 39.484375 -20.707031 40.285156 -21.28125 40.609375 -21.78125 C 40.929688 -22.28125 41.09375 -22.851562 41.09375 -23.5 C 41.175781 -24.59375 41.609375 -25.234375 42.390625 -25.421875 C 43.171875 -25.609375 44.15625 -25.609375 45.34375 -25.421875 L 62.796875 -23.5 C 64.078125 -23.40625 65.0625 -23.128906 65.75 -22.671875 C 66.4375 -22.210938 66.78125 -21.4375 66.78125 -20.34375 C 66.78125 -16.945312 66.226562 -13.804688 65.125 -10.921875 C 64.03125 -8.035156 62.015625 -5.515625 59.078125 -3.359375 C 56.148438 -1.210938 51.941406 0.5 46.453125 1.78125 Z M 29.6875 -43.96875 L 43.15625 -43.96875 C 43.15625 -44.976562 42.992188 -46.238281 42.671875 -47.75 C 42.347656 -49.257812 41.546875 -50.335938 40.265625 -50.984375 C 37.148438 -51.992188 34.765625 -51.878906 33.109375 -50.640625 C 31.460938 -49.398438 30.320312 -47.175781 29.6875 -43.96875 Z M 29.6875 -43.96875 "/></g></g></g><g fill="#e26c52" fill-opacity="1"><g transform="translate(666.700226, 853.818082)"><g><path d="M 45.625 2.46875 C 42.601562 2.46875 41.320312 0.5 41.78125 -3.4375 C 34.257812 1.050781 26.5625 2.75 18.6875 1.65625 C 14.195312 1.007812 10.625 -0.269531 7.96875 -2.1875 C 5.3125 -4.113281 3.382812 -6.382812 2.1875 -9 C 1 -11.613281 0.335938 -14.289062 0.203125 -17.03125 C 0.0664062 -19.78125 0.179688 -22.300781 0.546875 -24.59375 C 1.285156 -28.351562 3.050781 -31.492188 5.84375 -34.015625 C 8.632812 -36.535156 12.019531 -38.503906 16 -39.921875 C 19.988281 -41.335938 24 -42.140625 28.03125 -42.328125 L 41.78125 -43.15625 C 41.59375 -45.71875 41.359375 -47.753906 41.078125 -49.265625 C 40.804688 -50.773438 40.050781 -51.828125 38.8125 -52.421875 C 37.582031 -53.015625 35.269531 -53.269531 31.875 -53.1875 C 30.320312 -53.1875 29.15625 -52.769531 28.375 -51.9375 C 27.59375 -51.113281 26.953125 -50.195312 26.453125 -49.1875 C 25.953125 -48.1875 25.398438 -47.316406 24.796875 -46.578125 C 24.203125 -45.847656 23.3125 -45.578125 22.125 -45.765625 L 7.28125 -47.6875 C 6 -47.863281 5.015625 -48.160156 4.328125 -48.578125 C 3.640625 -48.992188 3.296875 -49.75 3.296875 -50.84375 C 3.296875 -54.238281 3.726562 -57.378906 4.59375 -60.265625 C 5.46875 -63.148438 7.253906 -65.664062 9.953125 -67.8125 C 12.660156 -69.96875 16.71875 -71.640625 22.125 -72.828125 C 27.800781 -74.109375 33.296875 -74.703125 38.609375 -74.609375 C 43.929688 -74.523438 48.765625 -73.679688 53.109375 -72.078125 C 57.460938 -70.472656 61.035156 -68.019531 63.828125 -64.71875 C 66.628906 -61.425781 68.347656 -57.171875 68.984375 -51.953125 C 69.078125 -51.210938 69.164062 -48.53125 69.25 -43.90625 C 69.34375 -39.28125 69.4375 -33.320312 69.53125 -26.03125 C 69.625 -18.75 69.671875 -10.710938 69.671875 -1.921875 C 69.859375 -0.640625 69.421875 0.390625 68.359375 1.171875 C 67.304688 1.953125 66.367188 2.34375 65.546875 2.34375 Z M 37.109375 -29.828125 C 34.265625 -29.828125 32.15625 -29.09375 30.78125 -27.625 C 29.40625 -26.15625 28.738281 -24.4375 28.78125 -22.46875 C 28.832031 -20.5 29.585938 -18.78125 31.046875 -17.3125 C 32.515625 -15.84375 34.671875 -15.109375 37.515625 -15.109375 C 39.160156 -15.109375 39.984375 -15.753906 39.984375 -17.046875 L 39.984375 -27.890625 C 39.984375 -29.179688 39.023438 -29.828125 37.109375 -29.828125 Z M 37.109375 -29.828125 "/></g></g></g><g fill="#e26c52" fill-opacity="1"><g transform="translate(741.861882, 853.818082)"><g><path d="M 13.875 0.96875 C 12.78125 0.96875 11.863281 0.460938 11.125 -0.546875 C 10.300781 -1.554688 9.890625 -2.882812 9.890625 -4.53125 L 9.75 -51.390625 L 4.8125 -51.265625 C 2.882812 -51.171875 1.597656 -51.507812 0.953125 -52.28125 C 0.316406 -53.0625 0 -54.003906 0 -55.109375 L 0 -69.125 C 0 -70.40625 0.390625 -71.457031 1.171875 -72.28125 C 1.953125 -73.101562 3.164062 -73.515625 4.8125 -73.515625 L 9.625 -73.515625 L 9.625 -92.625 C 9.625 -94 10.035156 -95.28125 10.859375 -96.46875 C 11.679688 -97.570312 12.640625 -98.125 13.734375 -98.125 L 33.125 -98.125 C 34.3125 -98.125 35.316406 -97.570312 36.140625 -96.46875 C 36.960938 -95.375 37.375 -94.09375 37.375 -92.625 L 37.65625 -73.9375 L 41.90625 -73.9375 C 44.019531 -73.9375 45.394531 -73.519531 46.03125 -72.6875 C 46.675781 -71.863281 47 -70.90625 47 -69.8125 L 47.265625 -55.9375 C 47.265625 -54.832031 47.054688 -53.910156 46.640625 -53.171875 C 46.234375 -52.441406 45.070312 -52.035156 43.15625 -51.953125 L 37.921875 -51.8125 L 38.609375 -4.8125 C 38.796875 -3.25 38.382812 -1.921875 37.375 -0.828125 C 36.457031 0.273438 35.5 0.828125 34.5 0.828125 Z M 13.875 0.96875 "/></g></g></g></svg>